<svg width="518" height="518" viewBox="0 0 518 518" fill="none" xmlns="http://www.w3.org/2000/svg">
  <path d="M410.114 0.0706253H108.53C49.0537 0.0706253 0.821945 48.3024 0.821945 107.779V409.362C0.821945 468.839 49.0537 517.071 108.53 517.071H410.114C469.612 517.071 517.822 468.839 517.822 409.362V107.779C517.822 48.3024 469.612 0.0706253 410.114 0.0706253ZM313.909 422.072C305.184 423.752 302.405 418.388 302.405 413.8V366.516C302.405 350.424 296.761 339.955 290.557 334.613C328.945 330.347 369.271 315.764 369.271 249.588C369.271 230.76 362.55 215.38 351.542 203.338C353.308 198.986 359.211 181.451 349.84 157.734C349.84 157.734 335.386 153.103 302.491 175.398C288.705 171.521 273.97 169.647 259.322 169.56C244.674 169.625 229.939 171.521 216.174 175.355C183.258 153.06 168.782 157.691 168.782 157.691C159.433 181.43 165.336 198.943 167.124 203.316C156.094 215.38 149.373 230.739 149.373 249.566C149.373 315.57 189.592 330.369 227.893 334.742C222.96 339.05 218.5 346.633 216.949 357.792C207.105 362.186 182.181 369.79 166.8 343.445C166.8 343.445 157.688 326.901 140.369 325.673C140.369 325.673 123.566 325.457 139.184 336.164C139.184 336.164 150.493 341.463 158.335 361.367C158.335 361.367 168.308 392.129 216.239 381.703V413.778C216.239 418.324 213.46 423.666 204.865 422.072C136.362 399.302 86.9886 334.699 86.9886 258.571C86.9886 163.378 164.151 86.2373 259.322 86.2373C354.493 86.2373 431.655 163.378 431.655 258.571C431.655 334.677 382.346 399.259 313.909 422.072Z" fill="black"/>
  <path d="M313.909 422.285C305.184 423.965 302.405 418.601 302.405 414.013V366.729C302.405 350.637 296.761 340.168 290.557 334.825C328.945 330.56 369.271 315.976 369.271 249.8C369.271 230.973 362.55 215.592 351.542 203.551C353.308 199.199 359.211 181.664 349.84 157.947C349.84 157.947 335.386 153.315 302.491 175.611C288.705 171.733 273.97 169.859 259.322 169.773C244.674 169.838 229.939 171.733 216.174 175.568C183.258 153.272 168.782 157.904 168.782 157.904C159.433 181.643 165.336 199.156 167.124 203.529C156.094 215.592 149.373 230.952 149.373 249.779C149.373 315.783 189.592 330.582 227.893 334.955C222.96 339.263 218.5 346.846 216.949 358.004C207.105 362.399 182.181 370.003 166.8 343.658C166.8 343.658 157.688 327.114 140.369 325.886C140.369 325.886 123.566 325.67 139.184 336.376C139.184 336.376 150.493 341.676 158.335 361.58C158.335 361.58 168.308 392.342 216.239 381.915V413.991C216.239 418.536 213.46 423.879 204.865 422.285C136.362 399.515 86.9886 334.912 86.9886 258.783C86.9886 163.591 164.151 86.45 259.322 86.45C354.493 86.45 431.655 163.591 431.655 258.783C431.655 334.89 382.346 399.472 313.909 422.285Z" fill="white"/>
</svg>
